<svg xmlns="http://www.w3.org/2000/svg" width="36.761" height="35.256" viewBox="0 0 36.761 35.256">
  <g id="Path_117" data-name="Path 117" transform="translate(1400.911 -265.307)" fill="#12bbf3" stroke-linecap="round" stroke-linejoin="round" stroke-miterlimit="10">
    <path d="M -1371.031616210938 300.3048095703125 L -1373.721923828125 298.8904418945312 L -1382.530029296875 294.2598571777344 L -1391.337158203125 298.8904113769531 L -1394.027221679688 300.3048095703125 L -1393.513549804688 297.3092346191406 L -1391.831909179688 287.5015258789062 L -1398.957397460938 280.5557556152344 L -1401.1337890625 278.4342651367188 L -1398.126098632812 277.9972229003906 L -1388.27880859375 276.5663452148438 L -1383.875122070312 267.64306640625 L -1382.530029296875 264.91748046875 L -1381.184936523438 267.6430358886719 L -1376.781005859375 276.5663452148438 L -1366.933959960938 277.9972229003906 L -1363.92626953125 278.4342651367188 L -1366.102661132812 280.5557556152344 L -1373.228149414062 287.50146484375 L -1371.545532226562 297.3091125488281 L -1371.031616210938 300.3048095703125 Z" stroke="none"/>
    <path d="M -1382.530029296875 268.306884765625 L -1387.28271484375 277.9373474121094 L -1397.910400390625 279.4816284179688 L -1390.22021484375 286.9778137207031 L -1392.03515625 297.562744140625 L -1382.530029296875 292.565185546875 L -1373.02392578125 297.562744140625 L -1374.83984375 286.9778137207031 L -1367.149658203125 279.4816284179688 L -1377.777099609375 277.9373474121094 L -1382.530029296875 268.306884765625 M -1382.530029296875 265.306884765625 C -1381.388061523438 265.306884765625 -1380.34521484375 265.9551696777344 -1379.83984375 266.9791870117188 L -1375.784912109375 275.1953125 L -1366.71826171875 276.5128173828125 C -1365.588256835938 276.677001953125 -1364.6494140625 277.4685363769531 -1364.296508789062 278.5545654296875 C -1363.943603515625 279.6405944824219 -1364.237915039062 280.8327941894531 -1365.0556640625 281.6298828125 L -1371.616333007812 288.0251159667969 L -1370.067138671875 297.0554809570312 C -1369.8740234375 298.1809997558594 -1370.336669921875 299.3185119628906 -1371.260498046875 299.98974609375 C -1371.783203125 300.3695068359375 -1372.402221679688 300.562744140625 -1373.024291992188 300.562744140625 C -1373.501708984375 300.562744140625 -1373.98095703125 300.4489135742188 -1374.419921875 300.2181396484375 L -1382.529907226562 295.9545288085938 L -1390.639038085938 300.2180786132812 C -1391.078002929688 300.4488830566406 -1391.557373046875 300.5627746582031 -1392.034790039062 300.5627746582031 C -1392.656860351562 300.5627746582031 -1393.275756835938 300.3695678710938 -1393.798461914062 299.9898681640625 C -1394.722290039062 299.3186950683594 -1395.184936523438 298.1812438964844 -1394.991943359375 297.0557556152344 L -1393.443603515625 288.0252380371094 L -1400.00439453125 281.6298828125 C -1400.822143554688 280.8327941894531 -1401.116455078125 279.6405944824219 -1400.763549804688 278.5545654296875 C -1400.41064453125 277.4685363769531 -1399.471801757812 276.677001953125 -1398.341796875 276.5128173828125 L -1389.27490234375 275.1953125 L -1385.22021484375 266.979248046875 C -1384.71484375 265.9552001953125 -1383.671997070312 265.306884765625 -1382.530029296875 265.306884765625 Z" stroke="none" fill="#12bbf3"/>
  </g>
</svg>
