<svg xmlns="http://www.w3.org/2000/svg" width="36.761" height="35.255" viewBox="0 0 36.761 35.255">
  <g id="Path_116" data-name="Path 116" transform="translate(1400.911 -265.307)" fill="none" stroke-linecap="round" stroke-linejoin="round" stroke-miterlimit="10">
    <path d="M-1382.53,268.307l4.753,9.63,10.627,1.544-7.69,7.5,1.816,10.585-9.506-5-9.505,5,1.815-10.585-7.69-7.5,10.628-1.544Z" stroke="none"/>
    <path d="M -1382.530029296875 268.3068542480469 L -1387.28271484375 277.9371032714844 L -1397.910400390625 279.4813537597656 L -1390.22021484375 286.9773864746094 L -1392.03515625 297.5620422363281 L -1382.530029296875 292.5646057128906 L -1373.02392578125 297.5620422363281 L -1374.83984375 286.9773864746094 L -1367.149658203125 279.4813537597656 L -1377.777099609375 277.9371032714844 L -1382.530029296875 268.3068542480469 M -1382.530029296875 265.3068542480469 C -1381.38818359375 265.3068237304688 -1380.34521484375 265.9551391601562 -1379.83984375 266.9791259765625 L -1375.784912109375 275.195068359375 L -1366.71826171875 276.5125122070312 C -1365.588256835938 276.6767272949219 -1364.6494140625 277.46826171875 -1364.296508789062 278.5542907714844 C -1363.943603515625 279.6403503417969 -1364.237915039062 280.8325500488281 -1365.0556640625 281.6296081542969 L -1371.616333007812 288.0246887207031 L -1370.067138671875 297.0547790527344 C -1369.8740234375 298.1802673339844 -1370.336669921875 299.3177795410156 -1371.260498046875 299.9890441894531 C -1371.783081054688 300.3687744140625 -1372.402221679688 300.5620422363281 -1373.024291992188 300.5620422363281 C -1373.501708984375 300.5620422363281 -1373.98095703125 300.4482116699219 -1374.419921875 300.2174682617188 L -1382.529907226562 295.9539489746094 L -1390.639038085938 300.2174072265625 C -1391.078002929688 300.4481811523438 -1391.557373046875 300.5620422363281 -1392.034790039062 300.5620422363281 C -1392.656860351562 300.5620422363281 -1393.275756835938 300.3688354492188 -1393.798461914062 299.9891357421875 C -1394.722290039062 299.3179931640625 -1395.184936523438 298.1805114746094 -1394.991943359375 297.0550231933594 L -1393.443603515625 288.0248107910156 L -1400.00439453125 281.6296081542969 C -1400.822143554688 280.8325500488281 -1401.116455078125 279.6403503417969 -1400.763549804688 278.5542907714844 C -1400.41064453125 277.46826171875 -1399.471801757812 276.6767272949219 -1398.341796875 276.5125122070312 L -1389.27490234375 275.195068359375 L -1385.22021484375 266.9791870117188 C -1384.71484375 265.9551696777344 -1383.671997070312 265.3068542480469 -1382.530029296875 265.3068542480469 Z" stroke="none" fill="#12bbf3"/>
  </g>
</svg>
