<svg xmlns="http://www.w3.org/2000/svg" width="207" height="210" viewBox="0 0 207 210">
  <g id="Group_491" data-name="Group 491" transform="translate(-1093.152 -856.291)">
    <rect id="Rectangle_1472" data-name="Rectangle 1472" width="207" height="210" transform="translate(1093.152 856.291)" fill="#292764"/>
    <g id="Group_84" data-name="Group 84" transform="translate(1140.88 899.246)">
      <path id="Path_210" data-name="Path 210" d="M1153.689,914.051v36.808a.219.219,0,0,0,.219.22l1.536.006h23.6a.22.22,0,0,1,.221.22v13.978a.221.221,0,0,1-.221.221h-23.6c-8.966,0-16.261-6.514-16.261-14.518V906.842a7.231,7.231,0,0,1,7.253-7.209h87.29c8.966,0,16.261,6.513,16.261,14.519V958.3a7.23,7.23,0,0,1-7.251,7.21H1218a.22.22,0,0,0-.221.22v49.256a7.23,7.23,0,0,1-7.252,7.207H1186.65a.221.221,0,0,1-.221-.221v-13.977a.221.221,0,0,1,.221-.221h16.406a.22.22,0,0,0,.221-.221V951.306a.221.221,0,0,1,.221-.221h31.764a.22.22,0,0,0,.221-.22V914.057" transform="translate(-1139.184 -899.633)" fill="#fff"/>
    </g>
  </g>
</svg>
