<svg xmlns="http://www.w3.org/2000/svg" width="460" height="210" viewBox="0 0 460 210">
  <g id="Group_489" data-name="Group 489" transform="translate(-1093.152 -855.859)">
    <rect id="Rectangle_1472" data-name="Rectangle 1472" width="460" height="210" transform="translate(1093.152 855.859)" fill="#292764"/>
    <g id="Group_84" data-name="Group 84">
      <path id="Path_210" data-name="Path 210" d="M1153.642,914v36.688a.218.218,0,0,0,.218.219l1.531.006h23.527a.219.219,0,0,1,.22.219v13.932a.22.22,0,0,1-.22.22h-23.526c-8.937,0-16.208-6.493-16.208-14.471v-44a7.207,7.207,0,0,1,7.229-7.186h87.005c8.937,0,16.208,6.492,16.208,14.472v44a7.207,7.207,0,0,1-7.227,7.186h-24.653a.22.22,0,0,0-.22.219V1014.6a7.207,7.207,0,0,1-7.228,7.184h-23.8a.22.22,0,0,1-.22-.22v-13.931a.22.22,0,0,1,.22-.22h16.352a.219.219,0,0,0,.22-.22V951.137a.22.22,0,0,1,.22-.22h31.66a.22.22,0,0,0,.22-.219V914.01" fill="#fff"/>
    </g>
    <path id="Path_212" data-name="Path 212" d="M1489.076,966.151a8.444,8.444,0,0,0,.026-9.853c-4.007-5.615-10.672-14.747-15.721-20.632-6.552-7.635-12.022-14.8-15.994-19.334a.212.212,0,0,0-.168-.073l-18.1.329a.219.219,0,0,0-.166.359l33.983,41.268v0a4.808,4.808,0,0,1,.005,6.421h0l-34,41.259a.22.22,0,0,0,.17.359h18.77a.208.208,0,0,0,.132-.042C1462.153,1003.109,1481.124,977.15,1489.076,966.151Z" fill="#fff"/>
    <g id="Group_488" data-name="Group 488">
      <path id="Path_125" data-name="Path 125" d="M1507.9,916.859h-14.7a.221.221,0,0,0-.22.22V948.66c2.249,3.027,4.348,5.932,6,8.24a8.442,8.442,0,0,1-.027,9.853c-1.608,2.225-3.672,5.068-5.969,8.2v31.683a.22.22,0,0,0,.22.219h14.7a.22.22,0,0,0,.22-.219V917.079A.221.221,0,0,0,1507.9,916.859Z" fill="#fff"/>
    </g>
    <g id="Group_86" data-name="Group 86">
      <path id="Path_213" data-name="Path 213" d="M1302.415,916.224c-4.826,0-6.973,3.44-8.658,8.229l-30.2,81.153a.22.22,0,0,0,.2.3l14.9.319a.22.22,0,0,0,.21-.143l13.742-36.754,10.793-29.269a.22.22,0,0,1,.411,0l10.9,28.128,13.69,37.581a.219.219,0,0,0,.2.144l14.672.312a.22.22,0,0,0,.211-.294l-29.733-82.142C1312.068,918.989,1307.242,916.225,1302.415,916.224Z" fill="#fff"/>
    </g>
    <g id="Group_87" data-name="Group 87">
      <path id="Path_214" data-name="Path 214" d="M1390.759,916.426a75.833,75.833,0,0,0-10.474.739,39.155,39.155,0,0,0-9.534,2.6,29.882,29.882,0,0,0-8.056,4.97,24.159,24.159,0,0,0-7.978,17.81c0,5,.834,8.948,2.48,11.746a19.836,19.836,0,0,0,6.816,6.971,36.475,36.475,0,0,0,4.768,2.439,56.375,56.375,0,0,0,5.6,2.015c2.062.561,4.154,1.093,6.211,1.581,2.143.512,4.355,1.005,6.58,1.467l.033.007.032.007c1.694.376,3.369.729,4.968,1.046a32.049,32.049,0,0,1,5.67,1.705c.654.222,1.348.493,2.063.8l.054.023.054.025a21.034,21.034,0,0,1,3.889,2.308,8.26,8.26,0,0,1,3.356,6.767,10.017,10.017,0,0,1-2.525,7.145,13.281,13.281,0,0,1-4.585,3.136l-.16.066-.164.054a16.782,16.782,0,0,1-5.035.813h-.013a18.269,18.269,0,0,1-2.266.147h-1.929a54.894,54.894,0,0,1-14.413-1.88q-3.285-.906-6.473-2.114a8.745,8.745,0,0,0-10.624,3.675c-.176.3-.341.57-.488.813-1.185,2.049-2.235,3.914-3.133,5.559a.219.219,0,0,0,.107.3,86.587,86.587,0,0,0,14.7,5.124,70.563,70.563,0,0,0,17.183,2.134,79.446,79.446,0,0,0,14.072-1.277,36.319,36.319,0,0,0,11.986-4.329,23.71,23.71,0,0,0,8.226-7.97c2.018-3.192,3.043-7.507,3.043-12.825a38.164,38.164,0,0,0-.442-5.691,18.7,18.7,0,0,0-1.416-4.877,15.7,15.7,0,0,0-3.571-5.119,28.884,28.884,0,0,0-5.632-4.148,38.131,38.131,0,0,0-6.906-3.03c-2.644-.863-5.274-1.622-7.812-2.256l-.073-.019-.074-.021c-2.54-.724-5.044-1.343-7.444-1.84-2.591-.535-5.021-1.109-7.218-1.708a47.006,47.006,0,0,1-5.769-1.826,9.654,9.654,0,0,1-3.842-15.356,11.634,11.634,0,0,1,4.373-2.919,15.318,15.318,0,0,1,4.806-.954c1.306-.051,2.419-.073,3.414-.073a48.982,48.982,0,0,1,15.136,2.3q1.764.584,3.505,1.236a8.682,8.682,0,0,0,10.595-3.871h0c1.164-2.06,2.372-4.167,3.613-6.3a.224.224,0,0,0-.088-.31,55.894,55.894,0,0,0-12.15-4.676A70.072,70.072,0,0,0,1390.759,916.426Z" fill="#fff"/>
    </g>
  </g>
</svg>
