<svg xmlns="http://www.w3.org/2000/svg" width="35.18" height="39.256" viewBox="0 0 35.18 39.256">
  <g id="Group_448" data-name="Group 448" transform="translate(0 -2.462)">
    <g id="Group_150" data-name="Group 150" transform="matrix(0.951, 0.309, -0.309, 0.951, 16.305, 0)">
      <g id="Group_149" data-name="Group 149">
        <path id="Path_28" data-name="Path 28" d="M13.907,0,0,16.225" transform="translate(0 5.939)" fill="#fff" stroke="#12bbf3" stroke-width="3"/>
        <g id="Path_38" data-name="Path 38" transform="translate(7.968)" fill="#fff">
          <path d="M 5.939150333404541 10.37831878662109 C 3.491390228271484 10.37831878662109 1.500000357627869 8.386918067932129 1.500000357627869 5.93915843963623 C 1.500000357627869 3.491398334503174 3.491390228271484 1.499998450279236 5.939150333404541 1.499998450279236 C 8.386910438537598 1.499998450279236 10.37830066680908 3.491398334503174 10.37830066680908 5.93915843963623 C 10.37830066680908 8.386918067932129 8.386910438537598 10.37831878662109 5.939150333404541 10.37831878662109 Z" stroke="none"/>
          <path d="M 5.939150333404541 2.999998092651367 C 4.318500518798828 2.999998092651367 3 4.318498611450195 3 5.93915843963623 C 3 7.559818267822266 4.318500518798828 8.878318786621094 5.939150333404541 8.878318786621094 C 7.559800148010254 8.878318786621094 8.878300666809082 7.559818267822266 8.878300666809082 5.93915843963623 C 8.878300666809082 4.318498611450195 7.559800148010254 2.999998092651367 5.939150333404541 2.999998092651367 M 5.939150333404541 -1.9073486328125e-06 C 9.219250679016113 -1.9073486328125e-06 11.87830066680908 2.659048080444336 11.87830066680908 5.93915843963623 C 11.87830066680908 9.219268798828125 9.219250679016113 11.87831878662109 5.939150333404541 11.87831878662109 C 2.659049987792969 11.87831878662109 0 9.219268798828125 0 5.93915843963623 C 0 2.659048080444336 2.659049987792969 -1.9073486328125e-06 5.939150333404541 -1.9073486328125e-06 Z" stroke="none" fill="#12bbf3"/>
        </g>
      </g>
    </g>
    <g id="Path_36" data-name="Path 36" transform="translate(0 15)" fill="none">
      <path d="M6,0A6,6,0,1,1,0,6,6,6,0,0,1,6,0Z" stroke="none"/>
      <path d="M 6 3 C 4.345789909362793 3 3 4.345789909362793 3 6 C 3 7.654210090637207 4.345789909362793 9 6 9 C 7.654210090637207 9 9 7.654210090637207 9 6 C 9 4.345789909362793 7.654210090637207 3 6 3 M 6 0 C 9.31371021270752 0 12 2.68628978729248 12 6 C 12 9.31371021270752 9.31371021270752 12 6 12 C 2.68628978729248 12 0 9.31371021270752 0 6 C 0 2.68628978729248 2.68628978729248 0 6 0 Z" stroke="none" fill="#12bbf3"/>
    </g>
    <g id="Group_151" data-name="Group 151" transform="matrix(0.951, -0.309, 0.309, 0.951, 9.456, 23.102)">
      <g id="Group_149-2" data-name="Group 149">
        <path id="Path_28-2" data-name="Path 28" d="M13.907,16.225,0,0" fill="none" stroke="#12bbf3" stroke-width="3"/>
        <g id="Path_37" data-name="Path 37" transform="translate(7.968 10.285)" fill="#fff">
          <path d="M 5.939157009124756 10.37833690643311 C 3.491396903991699 10.37833690643311 1.499997019767761 8.386937141418457 1.499997019767761 5.939167022705078 C 1.499997019767761 3.491396903991699 3.491396903991699 1.499997019767761 5.939157009124756 1.499997019767761 C 8.386917114257812 1.499997019767761 10.37831687927246 3.491396903991699 10.37831687927246 5.939167022705078 C 10.37831687927246 8.386937141418457 8.386917114257812 10.37833690643311 5.939157009124756 10.37833690643311 Z" stroke="none"/>
          <path d="M 5.939157009124756 2.999997138977051 C 4.318497180938721 2.999997138977051 2.999997138977051 4.318507194519043 2.999997138977051 5.939167022705078 C 2.999997138977051 7.559826850891113 4.318497180938721 8.878336906433105 5.939157009124756 8.878336906433105 C 7.559816837310791 8.878336906433105 8.878316879272461 7.559826850891113 8.878316879272461 5.939167022705078 C 8.878316879272461 4.318507194519043 7.559816837310791 2.999997138977051 5.939157009124756 2.999997138977051 M 5.939157009124756 -2.86102294921875e-06 C 9.219266891479492 -2.86102294921875e-06 11.87831687927246 2.659056663513184 11.87831687927246 5.939167022705078 C 11.87831687927246 9.219276428222656 9.219266891479492 11.87833690643311 5.939157009124756 11.87833690643311 C 2.65904712677002 11.87833690643311 -2.86102294921875e-06 9.219276428222656 -2.86102294921875e-06 5.939167022705078 C -2.86102294921875e-06 2.659056663513184 2.65904712677002 -2.86102294921875e-06 5.939157009124756 -2.86102294921875e-06 Z" stroke="none" fill="#12bbf3"/>
        </g>
      </g>
    </g>
  </g>
</svg>
